<svg xmlns="http://www.w3.org/2000/svg" xmlns:xlink="http://www.w3.org/1999/xlink" width="500" zoomAndPan="magnify" viewBox="0 0 375 374.999991" height="500" preserveAspectRatio="xMidYMid meet" version="1.0"><defs><g/><clipPath id="9052698abd"><path d="M 138 145 L 240 145 L 240 230.90625 L 138 230.90625 Z M 138 145 " clip-rule="nonzero"/></clipPath><clipPath id="15ac9f9b91"><path d="M 106 104 L 258.992188 104 L 258.992188 206 L 106 206 Z M 106 104 " clip-rule="nonzero"/></clipPath><clipPath id="263ab7db63"><path d="M 125 94.40625 L 199 94.40625 L 199 184 L 125 184 Z M 125 94.40625 " clip-rule="nonzero"/></clipPath></defs><g clip-path="url(#9052698abd)"><path fill="#51ade5" d="M 173.769531 203.964844 C 178.65625 203.320312 183.3125 198.960938 183.398438 198.878906 C 183.386719 198.910156 183.554688 199.222656 187.949219 202.226562 C 193.230469 205.835938 198.027344 200.449219 198.027344 200.449219 C 205.214844 204.917969 210.152344 202.804688 210.152344 202.804688 C 205.78125 205.640625 199.558594 203.765625 199.558594 203.765625 C 190.03125 209.128906 183.585938 202.710938 183.585938 202.710938 C 179.585938 204.617188 173.769531 203.964844 173.769531 203.964844 Z M 138.152344 199.742188 C 141.195312 206.382812 145.5625 212.289062 150.914062 217.125 C 166.285156 214.664062 172.222656 207.675781 172.222656 207.675781 C 172.222656 207.675781 176.675781 215.414062 187.199219 215.339844 C 197.726562 215.265625 200.046875 207.675781 200.046875 207.675781 C 200.046875 207.675781 203.796875 212.578125 213.515625 214.960938 C 219.757812 216.492188 227.078125 212.613281 229.214844 209.664062 L 229.214844 209.660156 C 225.480469 208.742188 222.859375 207.765625 222.859375 207.765625 C 215.367188 212.265625 207.488281 208.996094 207.488281 208.996094 C 215.390625 210.414062 221.960938 200.5625 221.960938 200.5625 C 221.960938 200.5625 224.8125 204.195312 231.148438 206.929688 C 236.710938 198.515625 239.953125 188.429688 239.953125 177.585938 C 239.953125 165.617188 236.003906 154.566406 229.335938 145.667969 C 228.421875 146.316406 227.363281 147.179688 226.027344 148.617188 C 215.117188 160.382812 199.519531 171.984375 187.351562 179.585938 C 170.703125 189.988281 153.238281 196.734375 138.152344 199.742188 Z M 152.058594 218.128906 C 161.367188 226.070312 173.445312 230.867188 186.644531 230.867188 C 198.203125 230.867188 208.898438 227.191406 217.632812 220.945312 C 208.320312 221.171875 201.8125 215.875 201.8125 215.875 C 187.226562 226.332031 172.222656 215.414062 172.222656 215.414062 C 161.84375 218.308594 155.492188 218.46875 152.058594 218.128906 " fill-opacity="1" fill-rule="nonzero"/></g><path fill="#3871c1" d="M 187.351562 179.585938 C 199.519531 171.984375 215.117188 160.382812 226.027344 148.617188 C 227.363281 147.179688 228.421875 146.316406 229.335938 145.667969 C 229.589844 146.007812 229.839844 146.355469 230.085938 146.699219 C 223.597656 156.683594 211.046875 173.753906 193.273438 187.789062 C 177.511719 200.234375 161.277344 209.164062 147.472656 213.722656 C 143.675781 209.609375 140.515625 204.898438 138.152344 199.742188 C 153.238281 196.734375 170.703125 189.988281 187.351562 179.585938 " fill-opacity="1" fill-rule="nonzero"/><path fill="#f68712" d="M 224.058594 139.636719 C 218.382812 145.832031 207.804688 156.117188 192.945312 165.335938 C 180.28125 173.195312 167.070312 179.105469 155.554688 182.253906 C 153.125 182.917969 150.773438 183.460938 148.515625 183.871094 C 145.113281 184.492188 141.929688 184.8125 139.039062 184.8125 C 137.078125 184.8125 135.3125 184.664062 133.769531 184.375 C 133.484375 182.152344 133.339844 179.886719 133.339844 177.585938 C 133.339844 158.226562 143.671875 141.277344 159.121094 131.949219 C 163.878906 129.074219 169.121094 126.925781 174.699219 125.648438 C 174.726562 125.640625 174.753906 125.636719 174.785156 125.628906 C 176.234375 125.300781 177.707031 125.03125 179.199219 124.820312 C 179.40625 124.792969 179.613281 124.765625 179.824219 124.738281 C 181.296875 124.550781 182.789062 124.421875 184.300781 124.355469 C 184.398438 124.351562 184.496094 124.347656 184.589844 124.34375 C 185.273438 124.316406 185.957031 124.304688 186.644531 124.304688 C 189.355469 124.304688 192.015625 124.507812 194.617188 124.898438 C 206.011719 126.605469 216.226562 131.917969 224.058594 139.636719 " fill-opacity="1" fill-rule="nonzero"/><g clip-path="url(#15ac9f9b91)"><path fill="#2c3892" d="M 252.621094 117.488281 C 256.757812 111.144531 258.996094 105.515625 257.660156 104.605469 C 256.328125 103.699219 251.898438 107.832031 247.5 113.996094 L 230.609375 114.125 L 227.90625 118.089844 L 241.148438 123.882812 C 239.441406 126.691406 237.675781 129.703125 236.132812 132.476562 L 227.5 132.023438 L 226.203125 133.917969 L 233.589844 137.230469 C 233.460938 137.488281 220.144531 155.191406 195.964844 170.199219 C 163.257812 190.492188 130.332031 196.632812 122.414062 183.890625 C 116.921875 175.058594 124.882812 159.480469 141.171875 143.992188 C 115.117188 164.167969 100.742188 186.804688 108.054688 198.566406 C 116.769531 212.585938 153.0625 205.9375 188.980469 183.5 C 218.023438 165.355469 235.972656 138.996094 236.050781 138.90625 L 239.164062 143.222656 L 240.457031 141.324219 L 239.554688 134.808594 C 241.570312 132.359375 243.734375 129.617188 245.730469 127.003906 L 248.679688 136.007812 L 251.382812 132.046875 L 252.621094 117.488281 " fill-opacity="1" fill-rule="nonzero"/></g><g clip-path="url(#263ab7db63)"><path fill="#24265d" d="M 185.996094 125.492188 C 187.699219 126.957031 189.765625 127.921875 191.972656 128.347656 C 194.308594 128.796875 196.492188 129.503906 198.894531 130.644531 C 198.894531 130.644531 197.4375 127.890625 194.617188 124.898438 C 190.410156 120.425781 183.164062 115.417969 173.195312 118.238281 C 173.339844 118.144531 173.484375 118.050781 173.636719 117.957031 C 172.917969 117.671875 172.082031 117.4375 171.140625 117.335938 C 171.140625 117.335938 171.636719 117.183594 172.453125 117.175781 C 174 117.160156 175.515625 116.78125 176.867188 116.035156 L 176.914062 116.007812 C 176.101562 115.636719 175.65625 115.015625 174.503906 114.886719 C 174.503906 114.886719 175.167969 114.6875 176.21875 114.738281 C 177.96875 114.816406 179.714844 114.492188 181.289062 113.734375 C 181.378906 113.691406 181.46875 113.648438 181.554688 113.605469 C 180.671875 113.152344 179.542969 112.738281 178.191406 112.589844 C 178.191406 112.589844 179.125 112.28125 180.425781 112.285156 C 183.011719 112.296875 185.574219 111.765625 187.976562 110.800781 C 188.074219 110.761719 188.171875 110.722656 188.261719 110.6875 C 186.152344 110.058594 183.328125 109.421875 181.960938 109.269531 C 181.960938 109.269531 188.6875 108.570312 193.652344 109.0625 C 193.652344 109.0625 176.890625 97.507812 167.429688 118.582031 C 169 113.320312 169.460938 104.160156 161.097656 98.460938 C 157.171875 95.785156 151.789062 94.429688 151.789062 94.429688 C 153.273438 95.894531 160.605469 104.550781 161.253906 105.875 C 161.199219 105.832031 159.398438 104.5 157.28125 103.609375 C 157.3125 103.710938 157.347656 103.8125 157.378906 103.914062 C 157.949219 105.746094 161.414062 109.96875 161.8125 110.773438 C 161.8125 110.773438 160.355469 109.6875 158.511719 108.8125 C 158.945312 111.472656 160.179688 114.320312 160.289062 116.722656 C 151.851562 100.316406 133.421875 105.414062 133.421875 105.414062 C 139.484375 106.058594 147.351562 108.570312 147.351562 108.570312 C 145.679688 108.410156 142.140625 108.46875 139.464844 108.695312 C 139.554688 108.753906 139.652344 108.816406 139.75 108.882812 C 142.398438 110.644531 145.34375 111.921875 148.457031 112.5625 C 150.003906 112.878906 151.03125 113.476562 151.03125 113.476562 C 149.378906 113.316406 147.925781 113.53125 146.753906 113.855469 L 146.894531 113.960938 C 148.664062 115.304688 150.742188 116.175781 152.929688 116.546875 C 154.15625 116.757812 154.867188 117.140625 154.867188 117.140625 C 153.460938 117.007812 152.773438 117.640625 151.707031 117.882812 C 151.753906 117.925781 151.800781 117.964844 151.847656 118.003906 C 152.230469 118.332031 152.632812 118.632812 153.058594 118.902344 C 131.011719 111.777344 125.273438 127.730469 125.273438 127.730469 C 130.226562 124.285156 137.71875 121.066406 137.867188 121.003906 C 136.5 121.976562 133.863281 124.332031 131.992188 126.257812 C 132.007812 126.253906 132.027344 126.25 132.042969 126.25 C 135.371094 125.808594 138.574219 124.738281 141.542969 123.171875 C 142.820312 122.5 143.863281 122.300781 143.863281 122.300781 C 142.511719 123.265625 141.550781 124.375 140.878906 125.386719 C 140.910156 125.386719 140.9375 125.382812 140.96875 125.378906 C 143.222656 125.238281 145.398438 124.53125 147.335938 123.367188 C 148.351562 122.753906 149.117188 122.570312 149.164062 122.5625 C 148.015625 123.382812 147.910156 124.308594 147.261719 125.191406 L 147.308594 125.191406 C 149.175781 125.179688 151.019531 124.722656 152.652344 123.820312 C 153.535156 123.328125 154.171875 123.179688 154.210938 123.171875 C 153.265625 123.84375 152.515625 124.589844 151.917969 125.320312 C 152.796875 125.363281 153.636719 125.421875 154.433594 125.484375 C 142.277344 128.476562 142.347656 142.566406 142.347656 142.566406 C 143.066406 141.058594 143.992188 139.753906 145.058594 138.617188 C 145.582031 135.851562 146.691406 133.691406 146.691406 133.691406 C 146.449219 135.078125 146.976562 138.269531 146.984375 138.261719 C 148.734375 136.730469 149.480469 133.945312 150.382812 131.804688 C 150.617188 131.25 150.78125 130.929688 150.78125 130.929688 C 150.542969 132.28125 150.429688 133.488281 150.402344 134.558594 C 150.414062 134.550781 150.429688 134.542969 150.441406 134.535156 C 152.746094 133.25 154.585938 131.269531 155.640625 128.855469 C 155.820312 128.453125 155.566406 131.007812 155.554688 132.148438 C 158.675781 129.273438 160.601562 130.085938 160.601562 130.085938 C 160.136719 130.632812 159.640625 131.253906 159.121094 131.949219 C 153.484375 139.5 145.277344 155.738281 148.515625 183.871094 C 150.773438 183.460938 153.125 182.917969 155.554688 182.253906 C 152.910156 171.242188 149.761719 148.585938 162.636719 131.761719 C 162.640625 131.886719 163.109375 131.003906 163.523438 130.554688 C 163.601562 130.621094 162.691406 134.433594 162.636719 136.023438 L 162.636719 136.0625 C 163.394531 135.539062 164.179688 135.472656 164.898438 134.527344 C 164.890625 134.566406 164.71875 135.207031 164.175781 136.046875 C 163.140625 137.648438 162.492188 139.464844 162.3125 141.359375 C 162.3125 141.382812 162.308594 141.40625 162.308594 141.429688 C 163.175781 140.890625 164.136719 140.113281 164.984375 139 C 164.972656 139.050781 164.769531 139.90625 164.1875 140.933594 C 162.792969 143.390625 161.808594 146.058594 161.351562 148.847656 C 161.351562 148.863281 161.347656 148.878906 161.347656 148.890625 C 163.015625 147.367188 165.070312 145.207031 165.925781 144.082031 C 165.867188 144.207031 162.960938 150.429688 159.929688 154.511719 C 159.929688 154.511719 173.484375 148.535156 169.023438 131.445312 C 169.667969 134.011719 171.171875 136.277344 173.289062 137.871094 C 173.304688 137.882812 173.320312 137.894531 173.335938 137.90625 C 173.574219 136.964844 173.664062 134.488281 173.707031 133.316406 C 173.707031 133.316406 176.433594 136.609375 177.539062 141.304688 L 177.570312 141.335938 C 177.789062 140.429688 178.078125 137.996094 178.117188 136.882812 C 178.117188 136.882812 180.132812 140.980469 183.445312 149.847656 C 183.445312 149.847656 187.519531 134.585938 175.789062 126.296875 C 177.347656 127.105469 179.082031 127.519531 180.847656 127.507812 L 180.898438 127.503906 C 180.636719 126.898438 179.210938 125.277344 178.992188 124.972656 C 178.992188 124.972656 184.167969 127.507812 186.285156 127.65625 L 186.34375 127.664062 C 186.027344 126.9375 184.542969 124.648438 184.445312 124.507812 C 184.445312 124.507812 185.46875 125.035156 185.996094 125.492188 " fill-opacity="1" fill-rule="nonzero"/></g><g fill="#000000" fill-opacity="1"><g transform="translate(134.499013, 224.962369)"><g><path d="M 0.3125 0.28125 L 0.6875 -0.125 C 0.769531 -0.21875 0.863281 -0.226562 0.96875 -0.15625 L 1.59375 0.21875 L 6.34375 -4.953125 C 6.113281 -5.265625 5.972656 -5.457031 5.921875 -5.53125 C 5.847656 -5.632812 5.851562 -5.734375 5.9375 -5.828125 L 6.296875 -6.21875 L 7.609375 -5 C 7.691406 -4.925781 7.742188 -4.867188 7.765625 -4.828125 C 7.796875 -4.765625 7.796875 -4.691406 7.765625 -4.609375 L 6.328125 1.46875 C 6.273438 1.632812 6.195312 1.851562 6.09375 2.125 C 6.25 2.050781 6.472656 1.957031 6.765625 1.84375 L 12.625 -0.125 C 12.6875 -0.15625 12.765625 -0.160156 12.859375 -0.140625 C 12.898438 -0.117188 12.960938 -0.0664062 13.046875 0.015625 L 14.359375 1.21875 L 14 1.609375 C 13.914062 1.703125 13.816406 1.71875 13.703125 1.65625 L 13.09375 1.265625 L 8.34375 6.4375 C 8.5625 6.738281 8.695312 6.9375 8.75 7.03125 C 8.832031 7.125 8.832031 7.21875 8.75 7.3125 L 8.375 7.71875 L 6.203125 5.71875 L 6.578125 5.3125 C 6.660156 5.21875 6.753906 5.207031 6.859375 5.28125 C 7.085938 5.414062 7.320312 5.5625 7.5625 5.71875 L 11.34375 1.609375 C 11.507812 1.421875 11.648438 1.289062 11.765625 1.21875 L 5.78125 3.21875 C 5.582031 3.289062 5.414062 3.265625 5.28125 3.140625 L 5.15625 3.015625 C 5.007812 2.890625 4.960938 2.722656 5.015625 2.515625 L 6.515625 -3.65625 L 6.53125 -3.65625 C 6.382812 -3.46875 6.253906 -3.3125 6.140625 -3.1875 L 2.359375 0.921875 C 2.597656 1.242188 2.769531 1.472656 2.875 1.609375 C 2.9375 1.691406 2.925781 1.78125 2.84375 1.875 L 2.46875 2.28125 Z M 0.3125 0.28125 "/></g></g></g><g fill="#000000" fill-opacity="1"><g transform="translate(144.275022, 233.504372)"><g><path d="M 0.34375 0.25 L 0.65625 -0.1875 C 0.726562 -0.289062 0.816406 -0.320312 0.921875 -0.28125 L 1.59375 0.015625 L 5.65625 -5.734375 C 5.363281 -6.023438 5.1875 -6.207031 5.125 -6.28125 C 5.0625 -6.351562 5.066406 -6.441406 5.140625 -6.546875 L 5.4375 -6.96875 L 7.859375 -5.265625 L 7.5625 -4.84375 C 7.476562 -4.726562 7.382812 -4.695312 7.28125 -4.75 L 6.609375 -5.046875 L 2.546875 0.703125 C 2.804688 0.960938 2.988281 1.148438 3.09375 1.265625 C 3.15625 1.328125 3.148438 1.410156 3.078125 1.515625 L 2.765625 1.953125 Z M 0.34375 0.25 "/></g></g></g><g fill="#000000" fill-opacity="1"><g transform="translate(148.262308, 236.370507)"><g><path d="M 2.40625 -3.71875 C 3.0625 -4.875 3.953125 -5.617188 5.078125 -5.953125 C 6.203125 -6.265625 7.359375 -6.085938 8.546875 -5.421875 L 8.546875 -5.4375 C 9.148438 -5.09375 9.84375 -4.460938 10.625 -3.546875 L 10.28125 -2.953125 L 9.59375 -1.734375 L 9.078125 -2.03125 C 8.941406 -2.101562 8.898438 -2.210938 8.953125 -2.359375 C 8.960938 -2.390625 9.039062 -2.5625 9.1875 -2.875 C 9.226562 -2.957031 9.265625 -3.035156 9.296875 -3.109375 C 9.328125 -3.191406 9.347656 -3.253906 9.359375 -3.296875 C 9.378906 -3.347656 9.394531 -3.375 9.40625 -3.375 C 8.914062 -3.894531 8.425781 -4.296875 7.9375 -4.578125 C 7.125 -5.035156 6.304688 -5.140625 5.484375 -4.890625 C 4.660156 -4.617188 3.988281 -4.023438 3.46875 -3.109375 C 2.9375 -2.179688 2.765625 -1.296875 2.953125 -0.453125 C 3.148438 0.359375 3.632812 0.984375 4.40625 1.421875 C 4.851562 1.671875 5.222656 1.820312 5.515625 1.875 C 5.972656 1.945312 6.394531 1.929688 6.78125 1.828125 C 6.882812 1.816406 6.957031 1.820312 7 1.84375 C 7.070312 1.882812 7.113281 1.941406 7.125 2.015625 L 7.296875 2.6875 C 6.179688 3.082031 5.035156 2.945312 3.859375 2.28125 C 2.753906 1.65625 2.070312 0.796875 1.8125 -0.296875 C 1.5625 -1.429688 1.757812 -2.570312 2.40625 -3.71875 Z M 2.40625 -3.71875 "/></g></g></g><g fill="#000000" fill-opacity="1"><g transform="translate(156.206028, 240.774275)"><g><path d="M 0.375 0.140625 L 0.578125 -0.359375 C 0.617188 -0.460938 0.703125 -0.507812 0.828125 -0.5 L 1.5625 -0.375 L 4.15625 -6.890625 C 3.8125 -7.109375 3.609375 -7.238281 3.546875 -7.28125 C 3.441406 -7.351562 3.410156 -7.445312 3.453125 -7.5625 L 3.65625 -8.0625 L 4.484375 -7.734375 L 6.6875 -6.859375 C 7.195312 -6.660156 7.628906 -6.425781 7.984375 -6.15625 C 8.316406 -5.90625 8.566406 -5.628906 8.734375 -5.328125 C 8.898438 -5.015625 8.988281 -4.695312 9 -4.375 C 9 -4.050781 8.929688 -3.71875 8.796875 -3.375 C 8.679688 -3.101562 8.523438 -2.859375 8.328125 -2.640625 C 8.148438 -2.421875 7.925781 -2.238281 7.65625 -2.09375 C 7.394531 -1.945312 7.113281 -1.859375 6.8125 -1.828125 C 6.457031 -1.785156 6.132812 -1.785156 5.84375 -1.828125 C 5.957031 -1.691406 6.035156 -1.53125 6.078125 -1.34375 L 6.875 1.78125 C 7.25 2.007812 7.445312 2.128906 7.46875 2.140625 C 7.570312 2.222656 7.601562 2.316406 7.5625 2.421875 L 7.359375 2.9375 L 7.140625 2.84375 L 6.53125 2.609375 L 6.171875 2.46875 C 5.960938 2.382812 5.847656 2.238281 5.828125 2.03125 L 4.859375 -1.71875 C 4.835938 -1.832031 4.789062 -1.929688 4.71875 -2.015625 C 4.6875 -2.085938 4.585938 -2.15625 4.421875 -2.21875 L 3.6875 -2.515625 L 2.65625 0.0625 C 2.988281 0.300781 3.179688 0.429688 3.234375 0.453125 C 3.285156 0.484375 3.320312 0.523438 3.34375 0.578125 C 3.363281 0.640625 3.363281 0.691406 3.34375 0.734375 L 3.140625 1.234375 L 2.3125 0.90625 L 1.203125 0.46875 Z M 4 -3.3125 L 5.046875 -2.890625 L 5.03125 -2.90625 C 5.363281 -2.769531 5.664062 -2.695312 5.9375 -2.6875 C 6.195312 -2.65625 6.445312 -2.6875 6.6875 -2.78125 C 6.925781 -2.851562 7.125 -2.96875 7.28125 -3.125 C 7.4375 -3.28125 7.566406 -3.484375 7.671875 -3.734375 C 7.859375 -4.210938 7.84375 -4.644531 7.625 -5.03125 C 7.40625 -5.394531 6.972656 -5.707031 6.328125 -5.96875 L 5.234375 -6.40625 Z M 4 -3.3125 "/></g></g></g><g fill="#000000" fill-opacity="1"><g transform="translate(165.089716, 244.25921)"><g><path d="M 1.171875 -2.359375 C 1.097656 -2.953125 1.132812 -3.570312 1.28125 -4.21875 C 1.4375 -4.863281 1.679688 -5.425781 2.015625 -5.90625 C 2.347656 -6.414062 2.75 -6.816406 3.21875 -7.109375 C 3.6875 -7.410156 4.207031 -7.609375 4.78125 -7.703125 C 5.363281 -7.773438 5.960938 -7.738281 6.578125 -7.59375 C 7.203125 -7.445312 7.753906 -7.207031 8.234375 -6.875 C 8.710938 -6.53125 9.085938 -6.125 9.359375 -5.65625 C 9.640625 -5.175781 9.820312 -4.640625 9.90625 -4.046875 C 9.96875 -3.484375 9.914062 -2.867188 9.75 -2.203125 L 9.734375 -2.1875 C 9.578125 -1.539062 9.34375 -0.972656 9.03125 -0.484375 C 8.695312 -0.00390625 8.296875 0.390625 7.828125 0.703125 C 7.367188 0.992188 6.851562 1.179688 6.28125 1.265625 C 5.6875 1.367188 5.085938 1.347656 4.484375 1.203125 C 3.878906 1.054688 3.328125 0.800781 2.828125 0.4375 C 2.335938 0.09375 1.960938 -0.304688 1.703125 -0.765625 C 1.421875 -1.253906 1.242188 -1.785156 1.171875 -2.359375 Z M 2.453125 -3.921875 C 2.328125 -3.398438 2.289062 -2.914062 2.34375 -2.46875 C 2.382812 -2.019531 2.503906 -1.613281 2.703125 -1.25 C 2.898438 -0.894531 3.164062 -0.597656 3.5 -0.359375 C 3.863281 -0.109375 4.269531 0.0664062 4.71875 0.171875 C 5.164062 0.285156 5.601562 0.3125 6.03125 0.25 C 6.4375 0.175781 6.804688 0.03125 7.140625 -0.1875 C 7.472656 -0.40625 7.757812 -0.707031 8 -1.09375 C 8.238281 -1.488281 8.421875 -1.945312 8.546875 -2.46875 L 8.53125 -2.46875 C 8.664062 -3.007812 8.710938 -3.503906 8.671875 -3.953125 C 8.617188 -4.441406 8.503906 -4.84375 8.328125 -5.15625 C 8.140625 -5.5 7.875 -5.800781 7.53125 -6.0625 C 7.195312 -6.300781 6.789062 -6.476562 6.3125 -6.59375 C 5.851562 -6.695312 5.414062 -6.722656 5 -6.671875 C 4.59375 -6.585938 4.222656 -6.4375 3.890625 -6.21875 C 3.554688 -5.988281 3.265625 -5.679688 3.015625 -5.296875 C 2.773438 -4.921875 2.585938 -4.460938 2.453125 -3.921875 Z M 2.453125 -3.921875 "/></g></g></g><g fill="#000000" fill-opacity="1"><g transform="translate(175.372924, 246.528164)"><g><path d="M 0.46875 -0.328125 L 0.703125 -2.53125 L 1.296875 -2.46875 C 1.441406 -2.457031 1.519531 -2.375 1.53125 -2.21875 C 1.539062 -2.15625 1.539062 -1.957031 1.53125 -1.625 L 1.5 -1.09375 C 2.113281 -0.789062 2.601562 -0.625 2.96875 -0.59375 C 3.3125 -0.550781 3.617188 -0.5625 3.890625 -0.625 C 4.117188 -0.664062 4.3125 -0.753906 4.46875 -0.890625 C 4.8125 -1.140625 5.007812 -1.507812 5.0625 -2 C 5.101562 -2.46875 4.925781 -2.847656 4.53125 -3.140625 C 4.320312 -3.296875 4.109375 -3.421875 3.890625 -3.515625 C 3.054688 -3.867188 2.554688 -4.085938 2.390625 -4.171875 C 2.160156 -4.296875 1.953125 -4.472656 1.765625 -4.703125 C 1.367188 -5.128906 1.207031 -5.695312 1.28125 -6.40625 C 1.351562 -7.050781 1.644531 -7.582031 2.15625 -8 C 2.707031 -8.4375 3.390625 -8.613281 4.203125 -8.53125 C 5.035156 -8.445312 5.835938 -8.203125 6.609375 -7.796875 L 6.40625 -5.78125 L 5.8125 -5.84375 C 5.664062 -5.851562 5.585938 -5.925781 5.578125 -6.0625 C 5.578125 -6.0625 5.578125 -6.097656 5.578125 -6.171875 C 5.578125 -6.253906 5.578125 -6.382812 5.578125 -6.5625 C 5.585938 -6.75 5.59375 -6.945312 5.59375 -7.15625 C 5.0625 -7.375 4.59375 -7.503906 4.1875 -7.546875 C 3.65625 -7.597656 3.226562 -7.507812 2.90625 -7.28125 C 2.613281 -7.050781 2.445312 -6.738281 2.40625 -6.34375 C 2.351562 -5.90625 2.535156 -5.539062 2.953125 -5.25 C 3.148438 -5.101562 3.367188 -4.976562 3.609375 -4.875 C 4.296875 -4.5625 4.789062 -4.320312 5.09375 -4.15625 L 5.0625 -4.15625 C 5.90625 -3.6875 6.28125 -2.988281 6.1875 -2.0625 C 6.101562 -1.25 5.78125 -0.617188 5.21875 -0.171875 C 4.625 0.304688 3.867188 0.5 2.953125 0.40625 C 2.566406 0.363281 2.171875 0.285156 1.765625 0.171875 C 1.484375 0.0859375 1.164062 -0.0234375 0.8125 -0.171875 Z M 0.46875 -0.328125 "/></g></g></g><g fill="#000000" fill-opacity="1"><g transform="translate(182.81576, 247.321275)"><g><path d="M -0.015625 -8.3125 L -0.015625 -8.828125 L 3.09375 -8.90625 L 3.09375 -8.390625 C 3.101562 -8.253906 3.039062 -8.175781 2.90625 -8.15625 C 2.738281 -8.125 2.46875 -8.070312 2.09375 -8 L 2.203125 -3.546875 C 2.222656 -2.765625 2.441406 -2.160156 2.859375 -1.734375 C 3.285156 -1.273438 3.863281 -1.050781 4.59375 -1.0625 C 5.320312 -1.082031 5.890625 -1.332031 6.296875 -1.8125 C 6.691406 -2.269531 6.878906 -2.878906 6.859375 -3.640625 L 6.75 -8.109375 C 6.34375 -8.160156 6.070312 -8.203125 5.9375 -8.234375 C 5.800781 -8.253906 5.726562 -8.332031 5.71875 -8.46875 L 5.71875 -8.984375 L 6.734375 -9 L 7.921875 -9.03125 L 8.796875 -9.0625 L 8.796875 -8.53125 C 8.804688 -8.40625 8.75 -8.320312 8.625 -8.28125 L 7.921875 -8.125 L 8.03125 -3.65625 C 8.0625 -2.644531 7.769531 -1.796875 7.15625 -1.109375 C 6.539062 -0.398438 5.691406 -0.0351562 4.609375 -0.015625 C 3.535156 0.015625 2.671875 -0.300781 2.015625 -0.96875 C 1.367188 -1.632812 1.03125 -2.472656 1 -3.484375 L 0.890625 -7.953125 C 0.503906 -8.015625 0.269531 -8.0625 0.1875 -8.09375 C 0.0625 -8.101562 -0.00390625 -8.175781 -0.015625 -8.3125 Z M -0.015625 -8.3125 "/></g></g></g><g fill="#000000" fill-opacity="1"><g transform="translate(193.324632, 246.922329)"><g><path d="M 0.40625 -0.078125 L 0.3125 -0.59375 C 0.289062 -0.707031 0.335938 -0.789062 0.453125 -0.84375 L 1.140625 -1.125 L -0.046875 -8.046875 C -0.472656 -8.066406 -0.722656 -8.066406 -0.796875 -8.046875 C -0.910156 -8.054688 -0.976562 -8.125 -1 -8.25 L -1.09375 -8.78125 L -0.21875 -8.9375 L 2.125 -9.34375 C 2.65625 -9.4375 3.140625 -9.46875 3.578125 -9.4375 C 3.992188 -9.382812 4.351562 -9.273438 4.65625 -9.109375 C 4.96875 -8.929688 5.210938 -8.707031 5.390625 -8.4375 C 5.554688 -8.164062 5.675781 -7.84375 5.75 -7.46875 C 5.789062 -7.175781 5.785156 -6.882812 5.734375 -6.59375 C 5.679688 -6.3125 5.582031 -6.039062 5.4375 -5.78125 C 5.289062 -5.53125 5.097656 -5.304688 4.859375 -5.109375 C 4.578125 -4.890625 4.300781 -4.726562 4.03125 -4.625 C 4.1875 -4.5625 4.332031 -4.460938 4.46875 -4.328125 L 6.78125 -2.078125 C 7.226562 -2.078125 7.46875 -2.070312 7.5 -2.0625 C 7.625 -2.050781 7.695312 -1.988281 7.71875 -1.875 L 7.8125 -1.34375 L 7.578125 -1.3125 L 6.921875 -1.1875 L 6.546875 -1.125 C 6.328125 -1.09375 6.15625 -1.15625 6.03125 -1.3125 L 3.234375 -4.015625 C 3.148438 -4.097656 3.066406 -4.160156 2.984375 -4.203125 C 2.910156 -4.242188 2.785156 -4.25 2.609375 -4.21875 L 1.828125 -4.078125 L 2.296875 -1.328125 C 2.703125 -1.296875 2.9375 -1.28125 3 -1.28125 C 3.0625 -1.28125 3.113281 -1.265625 3.15625 -1.234375 C 3.195312 -1.203125 3.222656 -1.160156 3.234375 -1.109375 L 3.328125 -0.59375 L 2.453125 -0.4375 L 1.28125 -0.234375 Z M 1.671875 -4.921875 L 2.78125 -5.109375 L 2.765625 -5.109375 C 3.117188 -5.171875 3.421875 -5.265625 3.671875 -5.390625 C 3.890625 -5.503906 4.082031 -5.660156 4.25 -5.859375 C 4.40625 -6.046875 4.507812 -6.25 4.5625 -6.46875 C 4.625 -6.6875 4.628906 -6.925781 4.578125 -7.1875 C 4.492188 -7.6875 4.257812 -8.050781 3.875 -8.28125 C 3.488281 -8.476562 2.957031 -8.519531 2.28125 -8.40625 L 1.109375 -8.203125 Z M 1.671875 -4.921875 "/></g></g></g><g fill="#000000" fill-opacity="1"><g transform="translate(202.653268, 245.199865)"><g><path d="M 0.40625 -0.125 L 0.25 -0.625 C 0.207031 -0.75 0.242188 -0.84375 0.359375 -0.90625 L 0.984375 -1.234375 L -1.09375 -7.953125 C -1.5 -7.898438 -1.738281 -7.882812 -1.8125 -7.90625 C -1.9375 -7.882812 -2.015625 -7.9375 -2.046875 -8.0625 L -2.203125 -8.5625 L 3.84375 -10.4375 L 4.46875 -8.390625 L 3.90625 -8.21875 C 3.757812 -8.164062 3.65625 -8.207031 3.59375 -8.34375 C 3.59375 -8.351562 3.578125 -8.394531 3.546875 -8.46875 C 3.523438 -8.539062 3.484375 -8.644531 3.421875 -8.78125 C 3.359375 -8.925781 3.296875 -9.070312 3.234375 -9.21875 L 0.078125 -8.25 L 0.953125 -5.453125 L 4.046875 -6.40625 L 4.328125 -5.515625 L 1.234375 -4.5625 L 2.125 -1.671875 L 5.28125 -2.640625 C 5.15625 -3.179688 5.085938 -3.472656 5.078125 -3.515625 C 5.054688 -3.640625 5.125 -3.726562 5.28125 -3.78125 L 5.84375 -3.953125 L 6.453125 -2 Z M 0.40625 -0.125 "/></g></g></g><g fill="#000000" fill-opacity="1"><g transform="translate(210.770858, 242.663237)"><g><path d="M 0.375 -0.171875 L 0.15625 -0.640625 C 0.101562 -0.765625 0.128906 -0.863281 0.234375 -0.9375 L 0.8125 -1.375 L -2.171875 -7.734375 C -2.546875 -7.640625 -2.78125 -7.585938 -2.875 -7.578125 C -3 -7.535156 -3.085938 -7.578125 -3.140625 -7.703125 L -3.359375 -8.171875 L 0.34375 -9.90625 C 1.539062 -10.46875 2.65625 -10.546875 3.6875 -10.140625 C 4.757812 -9.742188 5.582031 -8.941406 6.15625 -7.734375 C 6.425781 -7.140625 6.585938 -6.546875 6.640625 -5.953125 C 6.671875 -5.398438 6.59375 -4.859375 6.40625 -4.328125 C 6.03125 -3.265625 5.253906 -2.457031 4.078125 -1.90625 Z M 1.875 -1.9375 L 3.671875 -2.78125 C 4.535156 -3.1875 5.09375 -3.785156 5.34375 -4.578125 C 5.601562 -5.359375 5.503906 -6.238281 5.046875 -7.21875 C 4.804688 -7.726562 4.53125 -8.140625 4.21875 -8.453125 C 3.882812 -8.785156 3.546875 -9.023438 3.203125 -9.171875 C 2.441406 -9.492188 1.625 -9.453125 0.75 -9.046875 L -1.046875 -8.203125 Z M 1.875 -1.9375 "/></g></g></g><g fill="#000000" fill-opacity="1"><g transform="translate(220.004319, 238.100558)"><g/></g></g><g fill="#000000" fill-opacity="1"><g transform="translate(223.251814, 236.211466)"><g><path d="M 0.34375 -0.25 L 0.03125 -0.6875 C 0 -0.726562 -0.0078125 -0.773438 0 -0.828125 C 0 -0.890625 0.015625 -0.941406 0.046875 -0.984375 L 0.53125 -1.5 L -3.578125 -7.203125 C -3.953125 -7.023438 -4.164062 -6.925781 -4.21875 -6.90625 C -4.269531 -6.882812 -4.320312 -6.878906 -4.375 -6.890625 C -4.4375 -6.910156 -4.484375 -6.941406 -4.515625 -6.984375 L -4.828125 -7.40625 L -4.109375 -7.921875 L -3.15625 -8.609375 L -2.4375 -9.125 L -2.125 -8.703125 C -2.09375 -8.660156 -2.078125 -8.609375 -2.078125 -8.546875 C -2.085938 -8.492188 -2.109375 -8.445312 -2.140625 -8.40625 C -2.160156 -8.375 -2.238281 -8.28125 -2.375 -8.125 C -2.519531 -7.976562 -2.601562 -7.898438 -2.625 -7.890625 L 1.421875 -2.28125 L 4 -4.140625 C 3.800781 -4.472656 3.6875 -4.675781 3.65625 -4.75 C 3.625 -4.8125 3.617188 -4.867188 3.640625 -4.921875 C 3.660156 -4.984375 3.691406 -5.035156 3.734375 -5.078125 L 4.234375 -5.421875 L 5.359375 -3.859375 L 5.125 -3.6875 L 5.046875 -3.640625 L 1.0625 -0.765625 Z M 0.34375 -0.25 "/></g></g></g><g fill="#000000" fill-opacity="1"><g transform="translate(229.911131, 231.339774)"><g><path d="M -4.5 -5.21875 L -5.828125 -6.65625 L -0.953125 -11.1875 L -0.484375 -11.609375 L 0.84375 -10.171875 L 0.390625 -9.75 C 0.285156 -9.664062 0.203125 -9.644531 0.140625 -9.6875 C 0.015625 -9.757812 -0.203125 -9.929688 -0.515625 -10.203125 L -2.015625 -8.796875 L 2.703125 -3.734375 C 2.722656 -3.753906 2.765625 -3.773438 2.828125 -3.796875 C 3.160156 -4.015625 3.335938 -4.125 3.359375 -4.125 C 3.429688 -4.175781 3.515625 -4.15625 3.609375 -4.0625 L 3.953125 -3.6875 L 1.765625 -1.640625 L 1.421875 -2.015625 C 1.316406 -2.117188 1.3125 -2.226562 1.40625 -2.34375 C 1.425781 -2.382812 1.476562 -2.460938 1.5625 -2.578125 C 1.644531 -2.703125 1.722656 -2.8125 1.796875 -2.90625 L -2.90625 -7.984375 L -4.4375 -6.5625 C -4.164062 -6.195312 -4.003906 -5.96875 -3.953125 -5.875 C -3.910156 -5.800781 -3.945312 -5.710938 -4.0625 -5.609375 Z M -4.5 -5.21875 "/></g></g></g><g fill="#000000" fill-opacity="1"><g transform="translate(236.496889, 225.156566)"><g><path d="M 0.265625 -0.328125 L -0.140625 -0.65625 C -0.242188 -0.738281 -0.257812 -0.832031 -0.1875 -0.9375 L 0.140625 -1.578125 L -5.328125 -6 C -5.617188 -5.75 -5.804688 -5.597656 -5.890625 -5.546875 C -5.984375 -5.472656 -6.082031 -5.476562 -6.1875 -5.5625 L -6.59375 -5.890625 L -4.03125 -9.0625 C -3.195312 -10.09375 -2.222656 -10.648438 -1.109375 -10.734375 C 0.015625 -10.847656 1.097656 -10.484375 2.140625 -9.640625 C 2.648438 -9.234375 3.054688 -8.769531 3.359375 -8.25 C 3.628906 -7.769531 3.800781 -7.25 3.875 -6.6875 C 4 -5.570312 3.648438 -4.507812 2.828125 -3.5 Z M 0.828125 -2.5625 L 2.078125 -4.109375 C 2.679688 -4.847656 2.925781 -5.628906 2.8125 -6.453125 C 2.695312 -7.265625 2.21875 -8.007812 1.375 -8.6875 C 0.9375 -9.039062 0.507812 -9.296875 0.09375 -9.453125 C -0.351562 -9.597656 -0.765625 -9.660156 -1.140625 -9.640625 C -1.960938 -9.597656 -2.679688 -9.203125 -3.296875 -8.453125 L -4.546875 -6.90625 Z M 0.828125 -2.5625 "/></g></g></g><g fill="#000000" fill-opacity="1"><g transform="translate(242.800968, 217.013277)"><g><path d="M -0.265625 -0.828125 C -0.335938 -0.867188 -0.410156 -0.941406 -0.484375 -1.046875 C -0.535156 -1.109375 -0.566406 -1.191406 -0.578125 -1.296875 C -0.597656 -1.378906 -0.601562 -1.476562 -0.59375 -1.59375 C -0.59375 -1.675781 -0.554688 -1.769531 -0.484375 -1.875 C -0.410156 -1.976562 -0.34375 -2.046875 -0.28125 -2.078125 C -0.1875 -2.140625 -0.0859375 -2.179688 0.015625 -2.203125 C 0.0976562 -2.222656 0.1875 -2.222656 0.28125 -2.203125 C 0.375 -2.191406 0.46875 -2.15625 0.5625 -2.09375 C 0.65625 -2.03125 0.726562 -1.957031 0.78125 -1.875 C 0.832031 -1.800781 0.875 -1.710938 0.90625 -1.609375 C 0.914062 -1.523438 0.914062 -1.425781 0.90625 -1.3125 C 0.863281 -1.207031 0.816406 -1.117188 0.765625 -1.046875 C 0.722656 -0.972656 0.65625 -0.898438 0.5625 -0.828125 C 0.476562 -0.753906 0.394531 -0.710938 0.3125 -0.703125 C 0.207031 -0.679688 0.109375 -0.6875 0.015625 -0.71875 C -0.0859375 -0.738281 -0.1875 -0.773438 -0.28125 -0.828125 Z M -0.265625 -0.828125 "/></g></g></g><g fill="#000000" fill-opacity="1"><g transform="translate(244.748724, 213.986413)"><g/></g></g></svg>